<svg viewBox="0 0 382 326" xmlns="http://www.w3.org/2000/svg" xml:space="preserve" style="fill-rule:evenodd;clip-rule:evenodd;stroke-linejoin:round;stroke-miterlimit:2">
  <path d="M381.371 257.858v-27.62h-12.876v55.266h-42.389v-55.266h-68.149v68.142h12.876v-55.266h42.396v55.266h55.269v14.744h-55.266V326h68.142v-68.142h-.003ZM55.265 243.114v42.39H12.876v-42.39h42.389Zm-42.389-34.019H0v89.285h68.141v-68.142H12.876v-21.143ZM101.346 298.38h12.876v-55.266h42.389v55.266h12.877v-68.142h-68.142v68.142ZM78.306 230.203h12.877v68.177H78.306zM78.307 209.1h12.875v12.874H78.307zM234.917 285.504h-42.39v-14.757h42.39v14.757Zm-55.266-42.39h55.266v14.757h-55.266v40.509h68.142v-68.142h-68.142v12.876ZM147.736 52.624h85.902v85.901h-85.902z" style="fill:#231f20;fill-rule:nonzero"/>
  <path d="M147.73.393v26.145h111.994v138.085H121.638V.393H95.519v190.323h164.244v-26.093h26.092V.393H147.73Z" style="fill:#231f20;fill-rule:nonzero"/>
</svg>

