<svg width="382" height="326" viewBox="0 0 382 326">
<path d="M147.84 26.3413V0.196289H285.965V164.426H259.873V190.519H95.6287V0.196289H121.748V164.426H259.834V26.3413H147.84ZM381.481 230.041V257.661H381.484V325.803H313.342V312.927H368.608V298.183H313.339V242.917H270.943V298.183H258.067V230.041H326.216V285.307H368.605V230.041H381.481ZM55.3746 285.307V242.917H12.9856V285.307H55.3746ZM0.109619 208.898H12.9856V230.041H68.2506V298.183H0.109619V208.898ZM114.332 298.183H101.456V230.041H169.598V298.183H156.721V242.917H114.332V298.183ZM91.2926 230.006H78.4156V298.183H91.2926V230.006ZM91.2916 208.903H78.4166V221.777H91.2916V208.903ZM192.637 285.307H235.027V270.55H192.637V285.307ZM235.027 242.917H179.761V230.041H247.903V298.183H179.761V257.674H235.027V242.917ZM233.748 52.4272H147.846V138.328H233.748V52.4272Z" fill="#eeeeee"/>
</svg>
