<?xml version="1.0" encoding="UTF-8" standalone="no"?>
<!-- Created with Inkscape (http://www.inkscape.org/) -->

<svg
   width="1024"
   height="768"
   viewBox="0 0 1024 768"
   version="1.1"
   id="svg5"
   xml:space="preserve"
   inkscape:version="1.2.2 (b0a8486, 2022-12-01)"
   sodipodi:docname="svg-logo-drawing.svg"
   xmlns:inkscape="http://www.inkscape.org/namespaces/inkscape"
   xmlns:sodipodi="http://sodipodi.sourceforge.net/DTD/sodipodi-0.dtd"
   xmlns="http://www.w3.org/2000/svg"
   xmlns:svg="http://www.w3.org/2000/svg"><sodipodi:namedview
     id="namedview7"
     pagecolor="#ffffff"
     bordercolor="#000000"
     borderopacity="0.25"
     inkscape:showpageshadow="2"
     inkscape:pageopacity="0.0"
     inkscape:pagecheckerboard="0"
     inkscape:deskcolor="#d1d1d1"
     inkscape:document-units="px"
     showgrid="false"
     inkscape:zoom="0.30729167"
     inkscape:cx="515.79661"
     inkscape:cy="384"
     inkscape:window-width="1309"
     inkscape:window-height="456"
     inkscape:window-x="0"
     inkscape:window-y="23"
     inkscape:window-maximized="0"
     inkscape:current-layer="layer1" /><defs
     id="defs2" /><g
     inkscape:label="Layer 1"
     inkscape:groupmode="layer"
     id="layer1"><g
       style="clip-rule:evenodd;fill-rule:evenodd;stroke-linejoin:round;stroke-miterlimit:2"
       id="g131"
       transform="translate(325.10961,220.8035)"><path
         d="m 381.371,257.858 v -27.62 h -12.876 v 55.266 h -42.389 v -55.266 h -68.149 v 68.142 h 12.876 v -55.266 h 42.396 v 55.266 h 55.269 v 14.744 H 313.232 V 326 h 68.142 V 257.858 Z M 55.265,243.114 v 42.39 H 12.876 v -42.39 z M 12.876,209.095 H 0 V 298.38 H 68.141 V 230.238 H 12.876 Z m 88.47,89.285 h 12.876 v -55.266 h 42.389 v 55.266 h 12.877 V 230.238 H 101.346 Z M 78.306,230.203 H 91.183 V 298.38 H 78.306 Z M 78.307,209.1 h 12.875 v 12.874 H 78.307 Z m 156.61,76.404 h -42.39 v -14.757 h 42.39 z m -55.266,-42.39 h 55.266 v 14.757 h -55.266 v 40.509 h 68.142 V 230.238 H 179.651 Z M 147.736,52.624 h 85.902 v 85.901 h -85.902 z"
         style="fill:#231f20;fill-rule:nonzero"
         id="path141" /><path
         d="M 147.73,0.393 V 26.538 H 259.724 V 164.623 H 121.638 V 0.393 H 95.519 v 190.323 h 164.244 v -26.093 h 26.092 V 0.393 Z"
         style="fill:#231f20;fill-rule:nonzero"
         id="path138" /></g></g></svg>
