
<svg
   viewBox="0 0 1024 768"
>
       <path
         d="m 381.371,257.858 v -27.62 h -12.876 v 55.266 h -42.389 v -55.266 h -68.149 v 68.142 h 12.876 v -55.266 h 42.396 v 55.266 h 55.269 v 14.744 H 313.232 V 326 h 68.142 V 257.858 Z M 55.265,243.114 v 42.39 H 12.876 v -42.39 z M 12.876,209.095 H 0 V 298.38 H 68.141 V 230.238 H 12.876 Z m 88.47,89.285 h 12.876 v -55.266 h 42.389 v 55.266 h 12.877 V 230.238 H 101.346 Z M 78.306,230.203 H 91.183 V 298.38 H 78.306 Z M 78.307,209.1 h 12.875 v 12.874 H 78.307 Z m 156.61,76.404 h -42.39 v -14.757 h 42.39 z m -55.266,-42.39 h 55.266 v 14.757 h -55.266 v 40.509 h 68.142 V 230.238 H 179.651 Z M 147.736,52.624 h 85.902 v 85.901 h -85.902 z"></path>
        <path
           d="M 147.73,0.393 V 26.538 H 259.724 V 164.623 H 121.638 V 0.393 H 95.519 v 190.323 h 164.244 v -26.093 h 26.092 V 0.393 Z"
         ></path>
         

         </svg>
